<svg width="16" height="16" viewBox="0 0 16 16" fill="none" xmlns="http://www.w3.org/2000/svg">
<path d="M14.3688 4.42497C14.3671 4.42497 14.3655 4.42431 14.3643 4.42314C14.3632 4.42197 14.3625 4.42038 14.3625 4.41872C14.2722 4.26492 14.1428 4.13771 13.9875 4.04997L8.4875 0.956223C8.33849 0.873024 8.17067 0.829346 8 0.829346C7.82934 0.829346 7.66152 0.873024 7.5125 0.956223L2.0125 4.04997C1.85721 4.13771 1.72784 4.26492 1.6375 4.41872C1.6375 4.42038 1.63685 4.42197 1.63567 4.42314C1.6345 4.42431 1.63291 4.42497 1.63125 4.42497V4.43747C1.54485 4.58309 1.49949 4.7494 1.5 4.91872V11.0812C1.50032 11.2594 1.54793 11.4343 1.63798 11.588C1.72802 11.7417 1.85727 11.8688 2.0125 11.9562L7.5125 15.05C7.65097 15.1255 7.80492 15.1683 7.9625 15.175H8.05C8.20362 15.1682 8.35348 15.1253 8.4875 15.05L13.9875 11.9562C14.1427 11.8688 14.272 11.7417 14.362 11.588C14.4521 11.4343 14.4997 11.2594 14.5 11.0812V4.91872C14.5009 4.7454 14.4556 4.57496 14.3688 4.42497ZM8 1.82497L12.9813 4.62497L11.0688 5.71247L6.025 2.93122L8 1.82497ZM8.05625 7.42497L3.025 4.62497L5 3.51247L10.05 6.29372L8.05625 7.42497ZM8.50625 13.8937L8.55625 8.29372L10.5625 7.14997V9.53122C10.5625 9.66383 10.6152 9.79101 10.709 9.88478C10.8027 9.97854 10.9299 10.0312 11.0625 10.0312C11.1951 10.0312 11.3223 9.97854 11.4161 9.88478C11.5098 9.79101 11.5625 9.66383 11.5625 9.53122V6.58122L13.5 5.48122V11.0812L8.50625 13.8937Z" fill="#FAFAFA"/>
</svg>
